<mxfile host="Electron" modified="2024-03-13T07:10:12.242Z" agent="Mozilla/5.0 (Windows NT 10.0; Win64; x64) AppleWebKit/537.36 (KHTML, like Gecko) draw.io/24.0.4 Chrome/120.0.6099.109 Electron/28.1.0 Safari/537.36" etag="_1I7g4_fLBzyGx9xmQmz" version="24.0.4" type="device">
  <diagram name="Страница — 1" id="f5qaqixOcX6vG_OhwR0j">
    <mxGraphModel dx="1222" dy="786" grid="1" gridSize="10" guides="1" tooltips="1" connect="1" arrows="1" fold="1" page="1" pageScale="1" pageWidth="649" pageHeight="1011" math="0" shadow="0">
      <root>
        <mxCell id="0" />
        <mxCell id="1" parent="0" />
        <mxCell id="h30l0D0qGVRtCgshkbSv-50" style="edgeStyle=orthogonalEdgeStyle;rounded=0;orthogonalLoop=1;jettySize=auto;html=1;exitX=1;exitY=0.5;exitDx=0;exitDy=0;exitPerimeter=0;entryX=0;entryY=0.5;entryDx=0;entryDy=0;endArrow=none;endFill=0;fontFamily=Times New Roman;" edge="1" parent="1" source="h30l0D0qGVRtCgshkbSv-6" target="h30l0D0qGVRtCgshkbSv-7">
          <mxGeometry relative="1" as="geometry" />
        </mxCell>
        <mxCell id="h30l0D0qGVRtCgshkbSv-6" value="shaker_sort(массив, длина массива)" style="html=1;dashed=0;whiteSpace=wrap;shape=mxgraph.dfd.start;fontSize=11;fontFamily=Times New Roman;" vertex="1" parent="1">
          <mxGeometry y="60" width="120" height="40" as="geometry" />
        </mxCell>
        <mxCell id="h30l0D0qGVRtCgshkbSv-51" style="edgeStyle=orthogonalEdgeStyle;rounded=0;orthogonalLoop=1;jettySize=auto;html=1;exitX=1;exitY=0.5;exitDx=0;exitDy=0;entryX=0;entryY=0.5;entryDx=0;entryDy=0;endArrow=none;endFill=0;fontFamily=Times New Roman;" edge="1" parent="1" source="h30l0D0qGVRtCgshkbSv-7" target="h30l0D0qGVRtCgshkbSv-8">
          <mxGeometry relative="1" as="geometry" />
        </mxCell>
        <mxCell id="h30l0D0qGVRtCgshkbSv-7" value="Записать время начала выполения алгоритма, left = 0; right = q - 1, flag = 1" style="rounded=0;whiteSpace=wrap;html=1;fontFamily=Times New Roman;" vertex="1" parent="1">
          <mxGeometry x="160" y="40" width="120" height="80" as="geometry" />
        </mxCell>
        <mxCell id="h30l0D0qGVRtCgshkbSv-53" style="edgeStyle=orthogonalEdgeStyle;rounded=0;orthogonalLoop=1;jettySize=auto;html=1;exitX=0.5;exitY=1;exitDx=0;exitDy=0;entryX=0.5;entryY=0;entryDx=0;entryDy=0;endArrow=none;endFill=0;fontFamily=Times New Roman;" edge="1" parent="1" source="h30l0D0qGVRtCgshkbSv-8" target="h30l0D0qGVRtCgshkbSv-12">
          <mxGeometry relative="1" as="geometry" />
        </mxCell>
        <mxCell id="h30l0D0qGVRtCgshkbSv-62" value="Да" style="edgeLabel;html=1;align=center;verticalAlign=middle;resizable=0;points=[];fontFamily=Times New Roman;" vertex="1" connectable="0" parent="h30l0D0qGVRtCgshkbSv-53">
          <mxGeometry x="0.2481" y="-2" relative="1" as="geometry">
            <mxPoint x="18" y="-6" as="offset" />
          </mxGeometry>
        </mxCell>
        <mxCell id="h30l0D0qGVRtCgshkbSv-60" style="edgeStyle=orthogonalEdgeStyle;rounded=0;orthogonalLoop=1;jettySize=auto;html=1;exitX=1;exitY=0.5;exitDx=0;exitDy=0;entryX=0;entryY=0.5;entryDx=0;entryDy=0;endArrow=none;endFill=0;fontFamily=Times New Roman;" edge="1" parent="1" source="h30l0D0qGVRtCgshkbSv-8" target="h30l0D0qGVRtCgshkbSv-59">
          <mxGeometry relative="1" as="geometry" />
        </mxCell>
        <mxCell id="h30l0D0qGVRtCgshkbSv-63" value="Нет" style="edgeLabel;html=1;align=center;verticalAlign=middle;resizable=0;points=[];fontFamily=Times New Roman;" vertex="1" connectable="0" parent="h30l0D0qGVRtCgshkbSv-60">
          <mxGeometry x="-0.1148" relative="1" as="geometry">
            <mxPoint x="2" y="-10" as="offset" />
          </mxGeometry>
        </mxCell>
        <mxCell id="h30l0D0qGVRtCgshkbSv-8" value="Если left &amp;lt; right&lt;div&gt;и flag &amp;gt; 0&lt;/div&gt;" style="rhombus;whiteSpace=wrap;html=1;fontFamily=Times New Roman;" vertex="1" parent="1">
          <mxGeometry x="360" y="40" width="120" height="80" as="geometry" />
        </mxCell>
        <mxCell id="h30l0D0qGVRtCgshkbSv-9" value="Вернтуть массив" style="html=1;dashed=0;whiteSpace=wrap;shape=mxgraph.dfd.start;fontSize=11;fontFamily=Times New Roman;" vertex="1" parent="1">
          <mxGeometry x="520" y="160" width="120" height="40" as="geometry" />
        </mxCell>
        <mxCell id="h30l0D0qGVRtCgshkbSv-54" style="edgeStyle=orthogonalEdgeStyle;rounded=0;orthogonalLoop=1;jettySize=auto;html=1;exitX=0;exitY=0.5;exitDx=0;exitDy=0;endArrow=none;endFill=0;fontFamily=Times New Roman;" edge="1" parent="1" source="h30l0D0qGVRtCgshkbSv-12">
          <mxGeometry relative="1" as="geometry">
            <mxPoint x="320" y="179.75" as="targetPoint" />
          </mxGeometry>
        </mxCell>
        <mxCell id="h30l0D0qGVRtCgshkbSv-12" value="A" style="ellipse;whiteSpace=wrap;html=1;aspect=fixed;fontFamily=Times New Roman;" vertex="1" parent="1">
          <mxGeometry x="400" y="160" width="40" height="40" as="geometry" />
        </mxCell>
        <mxCell id="h30l0D0qGVRtCgshkbSv-19" style="edgeStyle=orthogonalEdgeStyle;rounded=0;orthogonalLoop=1;jettySize=auto;html=1;exitX=0.5;exitY=1;exitDx=0;exitDy=0;entryX=0.5;entryY=0;entryDx=0;entryDy=0;endArrow=none;endFill=0;fontFamily=Times New Roman;" edge="1" parent="1" source="h30l0D0qGVRtCgshkbSv-17" target="h30l0D0qGVRtCgshkbSv-18">
          <mxGeometry relative="1" as="geometry" />
        </mxCell>
        <mxCell id="h30l0D0qGVRtCgshkbSv-17" value="A" style="ellipse;whiteSpace=wrap;html=1;aspect=fixed;fontFamily=Times New Roman;" vertex="1" parent="1">
          <mxGeometry x="40" y="280" width="40" height="40" as="geometry" />
        </mxCell>
        <mxCell id="h30l0D0qGVRtCgshkbSv-27" style="edgeStyle=orthogonalEdgeStyle;rounded=0;orthogonalLoop=1;jettySize=auto;html=1;exitX=0.5;exitY=1;exitDx=0;exitDy=0;entryX=0.5;entryY=0;entryDx=0;entryDy=0;endArrow=none;endFill=0;fontFamily=Times New Roman;" edge="1" parent="1" source="h30l0D0qGVRtCgshkbSv-18" target="h30l0D0qGVRtCgshkbSv-23">
          <mxGeometry relative="1" as="geometry" />
        </mxCell>
        <mxCell id="h30l0D0qGVRtCgshkbSv-18" value="flag = 0" style="rounded=0;whiteSpace=wrap;html=1;fontFamily=Times New Roman;" vertex="1" parent="1">
          <mxGeometry y="360" width="120" height="80" as="geometry" />
        </mxCell>
        <mxCell id="h30l0D0qGVRtCgshkbSv-26" style="edgeStyle=orthogonalEdgeStyle;rounded=0;orthogonalLoop=1;jettySize=auto;html=1;exitX=0.5;exitY=1;exitDx=0;exitDy=0;entryX=0.5;entryY=0;entryDx=0;entryDy=0;endArrow=none;endFill=0;fontFamily=Times New Roman;" edge="1" parent="1" source="h30l0D0qGVRtCgshkbSv-23" target="h30l0D0qGVRtCgshkbSv-25">
          <mxGeometry relative="1" as="geometry" />
        </mxCell>
        <mxCell id="h30l0D0qGVRtCgshkbSv-23" value="i = left, пока i &amp;lt; right, увеличивать i" style="shape=loopLimit;whiteSpace=wrap;html=1;fontFamily=Times New Roman;" vertex="1" parent="1">
          <mxGeometry y="480" width="120" height="80" as="geometry" />
        </mxCell>
        <mxCell id="h30l0D0qGVRtCgshkbSv-58" style="edgeStyle=orthogonalEdgeStyle;rounded=0;orthogonalLoop=1;jettySize=auto;html=1;exitX=0.5;exitY=0;exitDx=0;exitDy=0;entryX=0.5;entryY=0;entryDx=0;entryDy=0;endArrow=none;endFill=0;fontFamily=Times New Roman;" edge="1" parent="1" source="h30l0D0qGVRtCgshkbSv-24" target="h30l0D0qGVRtCgshkbSv-57">
          <mxGeometry relative="1" as="geometry" />
        </mxCell>
        <mxCell id="h30l0D0qGVRtCgshkbSv-24" value="i" style="shape=loopLimit;whiteSpace=wrap;html=1;direction=west;fontFamily=Times New Roman;" vertex="1" parent="1">
          <mxGeometry y="760" width="120" height="80" as="geometry" />
        </mxCell>
        <mxCell id="h30l0D0qGVRtCgshkbSv-32" style="edgeStyle=orthogonalEdgeStyle;rounded=0;orthogonalLoop=1;jettySize=auto;html=1;exitX=1;exitY=0.5;exitDx=0;exitDy=0;endArrow=none;endFill=0;fontFamily=Times New Roman;" edge="1" parent="1" source="h30l0D0qGVRtCgshkbSv-25" target="h30l0D0qGVRtCgshkbSv-30">
          <mxGeometry relative="1" as="geometry" />
        </mxCell>
        <mxCell id="h30l0D0qGVRtCgshkbSv-33" value="Да" style="edgeLabel;html=1;align=center;verticalAlign=middle;resizable=0;points=[];fontFamily=Times New Roman;" vertex="1" connectable="0" parent="h30l0D0qGVRtCgshkbSv-32">
          <mxGeometry x="0.1824" relative="1" as="geometry">
            <mxPoint x="-4" y="-10" as="offset" />
          </mxGeometry>
        </mxCell>
        <mxCell id="h30l0D0qGVRtCgshkbSv-25" value="Если текущий элемент больше следующего" style="rhombus;whiteSpace=wrap;html=1;spacingLeft=16;spacingRight=16;fontSize=11;fontFamily=Times New Roman;" vertex="1" parent="1">
          <mxGeometry y="600" width="120" height="80" as="geometry" />
        </mxCell>
        <mxCell id="h30l0D0qGVRtCgshkbSv-28" value="Нет" style="edgeStyle=orthogonalEdgeStyle;rounded=0;orthogonalLoop=1;jettySize=auto;html=1;exitX=0.5;exitY=1;exitDx=0;exitDy=0;entryX=0.5;entryY=1;entryDx=0;entryDy=0;endArrow=none;endFill=0;fontFamily=Times New Roman;" edge="1" parent="1">
          <mxGeometry x="-0.5" y="-20" relative="1" as="geometry">
            <mxPoint as="offset" />
            <mxPoint x="60" y="680" as="sourcePoint" />
            <mxPoint x="60" y="760" as="targetPoint" />
          </mxGeometry>
        </mxCell>
        <mxCell id="h30l0D0qGVRtCgshkbSv-29" style="edgeStyle=orthogonalEdgeStyle;rounded=0;orthogonalLoop=1;jettySize=auto;html=1;exitX=0.5;exitY=1;exitDx=0;exitDy=0;endArrow=none;endFill=0;fontFamily=Times New Roman;" edge="1" parent="1" source="h30l0D0qGVRtCgshkbSv-30">
          <mxGeometry relative="1" as="geometry">
            <mxPoint x="220.11764705882365" y="720" as="targetPoint" />
          </mxGeometry>
        </mxCell>
        <mxCell id="h30l0D0qGVRtCgshkbSv-30" value="Поменять местами текущий и следующий элемент, flag = 1" style="rounded=0;whiteSpace=wrap;html=1;fontFamily=Times New Roman;" vertex="1" parent="1">
          <mxGeometry x="160" y="600" width="120" height="80" as="geometry" />
        </mxCell>
        <mxCell id="h30l0D0qGVRtCgshkbSv-31" value="" style="endArrow=classic;html=1;rounded=0;fontFamily=Times New Roman;" edge="1" parent="1">
          <mxGeometry width="50" height="50" relative="1" as="geometry">
            <mxPoint x="220" y="720" as="sourcePoint" />
            <mxPoint x="60" y="720" as="targetPoint" />
          </mxGeometry>
        </mxCell>
        <mxCell id="h30l0D0qGVRtCgshkbSv-34" style="edgeStyle=orthogonalEdgeStyle;rounded=0;orthogonalLoop=1;jettySize=auto;html=1;exitX=0.5;exitY=1;exitDx=0;exitDy=0;entryX=0.5;entryY=0;entryDx=0;entryDy=0;endArrow=none;endFill=0;fontFamily=Times New Roman;" edge="1" parent="1" source="h30l0D0qGVRtCgshkbSv-35" target="h30l0D0qGVRtCgshkbSv-37">
          <mxGeometry relative="1" as="geometry" />
        </mxCell>
        <mxCell id="h30l0D0qGVRtCgshkbSv-35" value="B" style="ellipse;whiteSpace=wrap;html=1;aspect=fixed;fontFamily=Times New Roman;" vertex="1" parent="1">
          <mxGeometry x="400" y="280" width="40" height="40" as="geometry" />
        </mxCell>
        <mxCell id="h30l0D0qGVRtCgshkbSv-36" style="edgeStyle=orthogonalEdgeStyle;rounded=0;orthogonalLoop=1;jettySize=auto;html=1;exitX=0.5;exitY=1;exitDx=0;exitDy=0;entryX=0.5;entryY=0;entryDx=0;entryDy=0;endArrow=none;endFill=0;fontFamily=Times New Roman;" edge="1" parent="1" source="h30l0D0qGVRtCgshkbSv-37" target="h30l0D0qGVRtCgshkbSv-39">
          <mxGeometry relative="1" as="geometry" />
        </mxCell>
        <mxCell id="h30l0D0qGVRtCgshkbSv-37" value="right--" style="rounded=0;whiteSpace=wrap;html=1;fontFamily=Times New Roman;" vertex="1" parent="1">
          <mxGeometry x="360" y="360" width="120" height="80" as="geometry" />
        </mxCell>
        <mxCell id="h30l0D0qGVRtCgshkbSv-38" style="edgeStyle=orthogonalEdgeStyle;rounded=0;orthogonalLoop=1;jettySize=auto;html=1;exitX=0.5;exitY=1;exitDx=0;exitDy=0;entryX=0.5;entryY=0;entryDx=0;entryDy=0;endArrow=none;endFill=0;fontFamily=Times New Roman;" edge="1" parent="1" source="h30l0D0qGVRtCgshkbSv-39" target="h30l0D0qGVRtCgshkbSv-43">
          <mxGeometry relative="1" as="geometry" />
        </mxCell>
        <mxCell id="h30l0D0qGVRtCgshkbSv-39" value="i = right, пока i &amp;gt; left, уменьшать i" style="shape=loopLimit;whiteSpace=wrap;html=1;fontFamily=Times New Roman;" vertex="1" parent="1">
          <mxGeometry x="360" y="480" width="120" height="80" as="geometry" />
        </mxCell>
        <mxCell id="h30l0D0qGVRtCgshkbSv-56" style="edgeStyle=orthogonalEdgeStyle;rounded=0;orthogonalLoop=1;jettySize=auto;html=1;exitX=0.5;exitY=0;exitDx=0;exitDy=0;entryX=0.5;entryY=0;entryDx=0;entryDy=0;endArrow=none;endFill=0;fontFamily=Times New Roman;" edge="1" parent="1" source="h30l0D0qGVRtCgshkbSv-40" target="h30l0D0qGVRtCgshkbSv-48">
          <mxGeometry relative="1" as="geometry" />
        </mxCell>
        <mxCell id="h30l0D0qGVRtCgshkbSv-40" value="i" style="shape=loopLimit;whiteSpace=wrap;html=1;direction=west;fontFamily=Times New Roman;" vertex="1" parent="1">
          <mxGeometry x="360" y="760" width="120" height="80" as="geometry" />
        </mxCell>
        <mxCell id="h30l0D0qGVRtCgshkbSv-41" style="edgeStyle=orthogonalEdgeStyle;rounded=0;orthogonalLoop=1;jettySize=auto;html=1;exitX=1;exitY=0.5;exitDx=0;exitDy=0;endArrow=none;endFill=0;fontFamily=Times New Roman;" edge="1" parent="1" source="h30l0D0qGVRtCgshkbSv-43" target="h30l0D0qGVRtCgshkbSv-46">
          <mxGeometry relative="1" as="geometry" />
        </mxCell>
        <mxCell id="h30l0D0qGVRtCgshkbSv-42" value="Да" style="edgeLabel;html=1;align=center;verticalAlign=middle;resizable=0;points=[];fontFamily=Times New Roman;" vertex="1" connectable="0" parent="h30l0D0qGVRtCgshkbSv-41">
          <mxGeometry x="0.1824" relative="1" as="geometry">
            <mxPoint x="-4" y="-10" as="offset" />
          </mxGeometry>
        </mxCell>
        <mxCell id="h30l0D0qGVRtCgshkbSv-43" value="Если текущий элемент больше следующего" style="rhombus;whiteSpace=wrap;html=1;spacingLeft=16;spacingRight=16;fontSize=11;fontFamily=Times New Roman;" vertex="1" parent="1">
          <mxGeometry x="360" y="600" width="120" height="80" as="geometry" />
        </mxCell>
        <mxCell id="h30l0D0qGVRtCgshkbSv-44" value="Нет" style="edgeStyle=orthogonalEdgeStyle;rounded=0;orthogonalLoop=1;jettySize=auto;html=1;exitX=0.5;exitY=1;exitDx=0;exitDy=0;entryX=0.5;entryY=1;entryDx=0;entryDy=0;endArrow=none;endFill=0;fontFamily=Times New Roman;" edge="1" parent="1">
          <mxGeometry x="-0.5" y="-20" relative="1" as="geometry">
            <mxPoint as="offset" />
            <mxPoint x="420" y="680" as="sourcePoint" />
            <mxPoint x="420" y="760" as="targetPoint" />
          </mxGeometry>
        </mxCell>
        <mxCell id="h30l0D0qGVRtCgshkbSv-45" style="edgeStyle=orthogonalEdgeStyle;rounded=0;orthogonalLoop=1;jettySize=auto;html=1;exitX=0.5;exitY=1;exitDx=0;exitDy=0;endArrow=none;endFill=0;fontFamily=Times New Roman;" edge="1" parent="1" source="h30l0D0qGVRtCgshkbSv-46">
          <mxGeometry relative="1" as="geometry">
            <mxPoint x="580.1176470588236" y="720" as="targetPoint" />
          </mxGeometry>
        </mxCell>
        <mxCell id="h30l0D0qGVRtCgshkbSv-46" value="Поменять местами текущий и предыдущий элемент, flag = 1" style="rounded=0;whiteSpace=wrap;html=1;fontFamily=Times New Roman;" vertex="1" parent="1">
          <mxGeometry x="520" y="600" width="120" height="80" as="geometry" />
        </mxCell>
        <mxCell id="h30l0D0qGVRtCgshkbSv-47" value="" style="endArrow=classic;html=1;rounded=0;fontFamily=Times New Roman;" edge="1" parent="1">
          <mxGeometry width="50" height="50" relative="1" as="geometry">
            <mxPoint x="580" y="720" as="sourcePoint" />
            <mxPoint x="420" y="720" as="targetPoint" />
          </mxGeometry>
        </mxCell>
        <mxCell id="h30l0D0qGVRtCgshkbSv-48" value="left++" style="rounded=0;whiteSpace=wrap;html=1;fontFamily=Times New Roman;" vertex="1" parent="1">
          <mxGeometry x="360" y="880" width="120" height="80" as="geometry" />
        </mxCell>
        <mxCell id="h30l0D0qGVRtCgshkbSv-55" value="" style="endArrow=classic;html=1;rounded=0;fontFamily=Times New Roman;" edge="1" parent="1">
          <mxGeometry width="50" height="50" relative="1" as="geometry">
            <mxPoint x="320" y="180" as="sourcePoint" />
            <mxPoint x="320" y="80" as="targetPoint" />
          </mxGeometry>
        </mxCell>
        <mxCell id="h30l0D0qGVRtCgshkbSv-57" value="B" style="ellipse;whiteSpace=wrap;html=1;aspect=fixed;fontFamily=Times New Roman;" vertex="1" parent="1">
          <mxGeometry x="40" y="880" width="40" height="40" as="geometry" />
        </mxCell>
        <mxCell id="h30l0D0qGVRtCgshkbSv-59" value="Записать время конца выполения алгоритма" style="rounded=0;whiteSpace=wrap;html=1;fontFamily=Times New Roman;" vertex="1" parent="1">
          <mxGeometry x="520" y="40" width="120" height="80" as="geometry" />
        </mxCell>
        <mxCell id="h30l0D0qGVRtCgshkbSv-61" style="edgeStyle=orthogonalEdgeStyle;rounded=0;orthogonalLoop=1;jettySize=auto;html=1;exitX=0.5;exitY=1;exitDx=0;exitDy=0;entryX=0.5;entryY=0.5;entryDx=0;entryDy=-20;entryPerimeter=0;endArrow=none;endFill=0;fontFamily=Times New Roman;" edge="1" parent="1" source="h30l0D0qGVRtCgshkbSv-59" target="h30l0D0qGVRtCgshkbSv-9">
          <mxGeometry relative="1" as="geometry" />
        </mxCell>
      </root>
    </mxGraphModel>
  </diagram>
</mxfile>
